<?xml version="1.0" standalone="no"?>
<!DOCTYPE svg PUBLIC "-//W3C//DTD SVG 20010904//EN"
 "http://www.w3.org/TR/2001/REC-SVG-20010904/DTD/svg10.dtd">
<svg version="1.0" xmlns="http://www.w3.org/2000/svg"
 width="328.000000pt" height="328.000000pt" viewBox="0 0 328.000000 328.000000"
 preserveAspectRatio="xMidYMid meet">
<metadata>
Created by potrace 1.11, written by Peter Selinger 2001-2013
</metadata>
<g transform="translate(0.000000,328.000000) scale(0.100000,-0.100000)"
fill="#000000" stroke="none">
<path d="M1499 3276 c-2 -2 -35 -7 -74 -11 -150 -15 -400 -94 -545 -172 -104
-57 -206 -123 -245 -160 -8 -7 -16 -13 -18 -13 -7 0 -81 -66 -138 -123 -254
-256 -413 -576 -464 -935 -13 -95 -14 -381 -1 -447 4 -16 13 -64 21 -107 81
-410 336 -789 693 -1029 174 -116 387 -206 577 -243 44 -9 94 -18 110 -22 64
-12 352 -12 440 1 175 25 331 71 482 141 66 31 185 97 208 116 6 4 39 29 75
55 106 76 262 228 312 305 9 14 23 31 30 39 37 39 182 294 196 344 1 6 18 55
37 110 18 55 36 111 39 125 2 14 9 45 14 70 34 148 37 452 6 615 -26 143 -98
349 -165 473 -43 77 -121 198 -155 239 -11 12 -29 35 -41 50 -43 56 -146 155
-226 219 -113 90 -109 88 -137 101 -31 16 -63 36 -70 44 -22 27 -343 156 -432
173 -13 2 -43 9 -68 15 -25 5 -65 13 -90 16 -52 7 -365 16 -371 11z"/>
</g>
</svg>
